# xmcd
#
# Track frame offsets:
#	150
#	11175
#	24238
#	34700
#	48613
#	59188
#	70225
#	81100
#	92488
#	103213
#
# Disc length: 1552 seconds
#
# Revision: 2
# Processed by: cddbd v1.5.2PL0 Copyright (c) Steve Scherf et al.
# Submitted via: audiograbber 1.83.01
#
DISCID=84060e0a
DTITLE=Roy Orbison - Shades Of Roy Orbison
DYEAR=1900
DGENRE=Oldies
TTITLE0=Only The Lonely
TTITLE1=Borne On The Wind
TTITLE2=Pretty One
TTITLE3=Indian Wedding
TTITLE4=Blue Avenue
TTITLE5=Workin' For The Man
TTITLE6=The Crowd
TTITLE7=Blue Bayou
TTITLE8=I'll Say It's All My Fault
TTITLE9=Oh, Pretty Woman
EXTD=
EXTT0=
EXTT1=
EXTT2=
EXTT3=
EXTT4=
EXTT5=
EXTT6=
EXTT7=
EXTT8=
EXTT9=
PLAYORDER=
